<svg xmlns="http://www.w3.org/2000/svg" version="1.1" xmlns:xlink="http://www.w3.org/1999/xlink" xmlns:svgjs="http://svgjs.dev/svgjs" width="1500" height="1500" viewBox="0 0 1500 1500"><rect width="1500" height="1500" fill="#ffffff"></rect><g transform="matrix(0.6666666666666666,0,0,0.6666666666666666,250.00011562499986,187.66666666666674)"><svg viewBox="0 0 320 360" data-background-color="#ffffff" preserveAspectRatio="xMidYMid meet" height="1687" width="1500" xmlns="http://www.w3.org/2000/svg" xmlns:xlink="http://www.w3.org/1999/xlink"><g id="tight-bounds" transform="matrix(1,0,0,1,-0.0000369999999634274,0)"><svg viewBox="0 0 320 360" height="360" width="320"><g><svg></svg></g><g><svg viewBox="0 0 320 360" height="360" width="320"><g><path transform="translate(-29.57346,-9.38389) scale(3.79147,3.79147)" d="M50 13.6c19.1 0 34.8 14.8 36.3 33.5h5.9c-0.3-4.7-1.4-9.2-3.2-13.5-2.1-5-5.2-9.6-9.1-13.4-3.9-3.9-8.4-6.9-13.4-9.1-5.3-2.2-10.8-3.4-16.5-3.4-5.7 0-11.2 1.1-16.5 3.3-5 2.1-9.6 5.2-13.4 9.1-3.9 3.9-6.9 8.4-9.1 13.4-1.8 4.3-2.9 8.9-3.2 13.5h5.9c1.5-18.6 17.2-33.4 36.3-33.4zM50 86.4c-19.1 0-34.8-14.8-36.3-33.5h-5.9c0.3 4.7 1.4 9.2 3.2 13.5 2.1 5 5.2 9.6 9.1 13.4 3.9 3.9 8.4 6.9 13.4 9.1 5.2 2.2 10.7 3.3 16.5 3.3 5.8 0 11.2-1.1 16.5-3.3 5-2.1 9.6-5.2 13.4-9.1 3.9-3.9 6.9-8.4 9.1-13.4 1.8-4.3 2.9-8.9 3.2-13.5h-5.9c-1.5 18.7-17.2 33.5-36.3 33.5z" fill="#000000" fill-rule="nonzero" stroke="none" stroke-width="1" stroke-linecap="butt" stroke-linejoin="miter" stroke-miterlimit="10" stroke-dasharray="" stroke-dashoffset="0" font-family="none" font-weight="none" font-size="none" text-anchor="none" style="mix-blend-mode: normal" data-fill-palette-color="tertiary"></path></g><g transform="matrix(1,0,0,1,56,99.39984927536233)"><svg viewBox="0 0 208 161.20030144927534" height="161.20030144927534" width="208"><g><svg viewBox="0 0 208 161.20030144927534" height="161.20030144927534" width="208"><g><svg viewBox="0 0 208 161.20030144927534" height="161.20030144927534" width="208"><g transform="matrix(1,0,0,1,0,120.62059130434783)"><svg viewBox="0 0 208 40.57971014492753" height="40.57971014492753" width="208"><g id="textblocktransform"><svg viewBox="0 0 208 40.57971014492753" height="40.57971014492753" width="208" id="textblock"><g><svg viewBox="0 0 208 40.57971014492753" height="40.57971014492753" width="208"><g transform="matrix(1,0,0,1,0,0)"><svg width="208" viewBox="1.9 -43.35 224.23 43.75" height="40.57971014492753" data-palette-color="#000000"><path d="M10.55 0L1.9 0 1.9-42.95 19.1-42.95 19.1-34.6 10.55-34.6 10.55-27.75 18.65-27.75 18.65-19.5 10.55-19.5 10.55 0ZM39.3 0L21.85 0 21.85-42.95 30.45-42.95 30.45-7.3 39.3-7.3 39.3 0ZM59.45 0L41.7 0 41.7-42.95 58.9-42.95 58.9-34.65 50.45-34.65 50.45-26.3 58.55-26.3 58.55-18.2 50.45-18.2 50.45-8.35 59.45-8.35 59.45 0ZM80.04 0L62.29 0 62.29-42.95 79.49-42.95 79.49-34.65 71.04-34.65 71.04-26.3 79.14-26.3 79.14-18.2 71.04-18.2 71.04-8.35 80.04-8.35 80.04 0ZM95.19 0L86.59 0 86.59-34.7 81.49-34.7 81.49-42.95 100.29-42.95 100.29-34.7 95.19-34.7 95.19 0ZM111.34 0L102.69 0 102.69-42.95 119.89-42.95 119.89-34.6 111.34-34.6 111.34-27.75 119.44-27.75 119.44-19.5 111.34-19.5 111.34 0ZM132.59 0.4Q127.29 0.4 124.71-2.6 122.14-5.6 122.14-11.5L122.14-11.5 122.14-42.95 130.49-42.95 130.49-11.85Q130.49-9.8 130.89-8.65 131.29-7.5 132.59-7.5L132.59-7.5Q133.89-7.5 134.29-8.63 134.69-9.75 134.69-11.85L134.69-11.85 134.69-42.95 143.04-42.95 143.04-11.5Q143.04-5.6 140.46-2.6 137.89 0.4 132.59 0.4L132.59 0.4ZM156.53 0.4Q150.68 0.4 148.08-2.5 145.48-5.4 145.48-11.85L145.48-11.85 145.48-16.05 153.93-16.05 153.93-10.7Q153.93-7.5 155.98-7.5L155.98-7.5Q157.13-7.5 157.58-8.18 158.03-8.85 158.03-10.45L158.03-10.45Q158.03-12.55 157.53-13.93 157.03-15.3 156.26-16.23 155.48-17.15 153.48-19.1L153.48-19.1 149.78-22.8Q145.48-27 145.48-32.1L145.48-32.1Q145.48-37.6 148.01-40.48 150.53-43.35 155.38-43.35L155.38-43.35Q161.18-43.35 163.73-40.28 166.28-37.2 166.28-30.65L166.28-30.65 157.53-30.65 157.48-33.6Q157.48-34.45 157.01-34.95 156.53-35.45 155.68-35.45L155.68-35.45Q154.68-35.45 154.18-34.9 153.68-34.35 153.68-33.4L153.68-33.4Q153.68-31.3 156.08-29.05L156.08-29.05 161.08-24.25Q162.83-22.55 163.98-21.03 165.13-19.5 165.83-17.43 166.53-15.35 166.53-12.5L166.53-12.5Q166.53-6.15 164.21-2.88 161.88 0.4 156.53 0.4L156.53 0.4ZM177.28 0L168.98 0 168.98-42.95 177.28-42.95 177.28 0ZM190.98 0.4Q185.78 0.4 183.08-2.78 180.38-5.95 180.38-11.7L180.38-11.7 180.38-32.15Q180.38-37.7 183.08-40.53 185.78-43.35 190.98-43.35L190.98-43.35Q196.18-43.35 198.88-40.53 201.58-37.7 201.58-32.15L201.58-32.15 201.58-11.7Q201.58-5.9 198.88-2.75 196.18 0.4 190.98 0.4L190.98 0.4ZM190.98-7.5Q192.13-7.5 192.53-8.5 192.93-9.5 192.93-11.3L192.93-11.3 192.93-32.3Q192.93-33.7 192.55-34.58 192.18-35.45 191.03-35.45L191.03-35.45Q188.88-35.45 188.88-32.2L188.88-32.2 188.88-11.25Q188.88-9.4 189.33-8.45 189.78-7.5 190.98-7.5L190.98-7.5ZM213.43 0L205.03 0 205.03-42.95 213.88-42.95 217.83-22.4 217.83-42.95 226.13-42.95 226.13 0 217.73 0 213.43-21.5 213.43 0Z" opacity="1" transform="matrix(1,0,0,1,0,0)" fill="#000000" class="wordmark-text-0" data-fill-palette-color="primary" id="text-0"></path></svg></g></svg></g></svg></g></svg></g><g transform="matrix(1,0,0,1,26.64580752320471,0)"><svg viewBox="0 0 154.70838495359058 111.04069565217391" height="111.04069565217391" width="154.70838495359058"><g><svg xmlns="http://www.w3.org/2000/svg" xmlns:xlink="http://www.w3.org/1999/xlink" version="1.1" x="0" y="0" viewBox="1 9.8 61.99999999999999 44.5" style="enable-background:new 0 0 64 64;" xml:space="preserve" height="111.04069565217391" width="154.70838495359058" class="icon-icon-0" data-fill-palette-color="accent" id="icon-0"><g fill="#8a8b8d" data-fill-palette-color="accent"><polygon points="23.7,15.2 23.7,24.4 8.2,30.8 9.5,15.2  " fill="#000000" data-fill-palette-color="accent"></polygon><polygon points="23.7,26.5 23.7,41.6 16.4,48.8 6.7,48.8 8.1,33  " fill="#000000" data-fill-palette-color="accent"></polygon><polygon points="50,15.2 26.4,38.9 26.4,15.2  " fill="#000000" data-fill-palette-color="accent"></polygon><polygon points="23.7,44.6 23.7,48.8 19.5,48.8  " fill="#000000" data-fill-palette-color="accent"></polygon><path d="M39.9 28.4c0 2.4 2.4 6 4.4 8.5l-8.9-3.9L39.9 28.4C39.9 28.4 39.9 28.4 39.9 28.4z" fill="#000000" data-fill-palette-color="accent"></path><path d="M48 38.5c1.8-2.2 5.7-7.1 5.7-10.1 0-3.8-3.1-6.9-6.9-6.9 0 0 0 0 0 0l6.3-6.3h1.3l2.4 27.2L48 38.5z" fill="#000000" data-fill-palette-color="accent"></path><polygon points="57.2,48.8 26.4,48.8 26.4,41.9 33.6,34.6 56.9,44.9  " fill="#000000" data-fill-palette-color="accent"></polygon><path d="M60.2 54.3H3.8C2.3 54.3 1 53 1 51.5l0-0.1 3.2-38.9c0-1.5 1.3-2.7 2.8-2.7h49.8c1.5 0 2.8 1.2 2.8 2.7l3.4 39v0.1C63 53 61.7 54.3 60.2 54.3zM4.4 50.9h55.1l-3.3-37.8H7.6L4.4 50.9z" fill="#000000" data-fill-palette-color="accent"></path><path d="M46.8 22.7c-3.1 0-5.7 2.5-5.7 5.7 0 2.9 4.8 8.6 5.6 9.5 0.1 0.1 0.2 0.1 0.2 0 0.8-0.9 5.6-6.6 5.6-9.5C52.5 25.3 49.9 22.7 46.8 22.7zM46.8 31.8c-1.9 0-3.4-1.5-3.4-3.4s1.5-3.4 3.4-3.4 3.4 1.5 3.4 3.4S48.6 31.8 46.8 31.8z" fill="#000000" data-fill-palette-color="accent"></path></g></svg></g></svg></g><g></g></svg></g></svg></g></svg></g></svg></g><defs></defs></svg><rect width="320" height="360" fill="none" stroke="none" visibility="hidden"></rect></g></svg></g></svg>