<svg width="57" height="123" viewBox="0 0 57 123" fill="none" xmlns="http://www.w3.org/2000/svg">
<path d="M54.6711 109.142C55.0725 109.142 55.3965 108.819 55.3965 108.419C55.3965 108.019 55.0725 107.693 54.6711 107.693C54.2707 107.693 53.9457 108.019 53.9457 108.419C53.9457 108.819 54.2707 109.142 54.6711 109.142Z" fill="#29242C"/>
<path d="M55.5749 105.515C55.8566 105.801 56.3169 105.801 56.5996 105.515C56.8834 105.231 56.8834 104.773 56.5996 104.49C56.3169 104.206 55.8566 104.206 55.5749 104.49C55.2901 104.773 55.2901 105.231 55.5749 105.515Z" fill="#29242C"/>
<path d="M55.5749 111.32C55.2901 111.603 55.2901 112.061 55.5749 112.345C55.8566 112.631 56.3169 112.631 56.5996 112.345C56.8834 112.061 56.8834 111.603 56.5996 111.32C56.3169 111.036 55.8566 111.036 55.5749 111.32Z" fill="#29242C"/>
<path d="M0.327124 102.617C-0.908037 105.465 1.63555 113.281 3.2845 114.21C4.93138 115.144 3.74368 103.508 3.74368 103.508L11.2599 94.5181L8.58527 92.3707C8.58527 92.3707 1.55919 99.7714 0.327124 102.617Z" fill="#F9AA78"/>
<path d="M16.2027 104.734C17.1974 102.709 18.2644 100.547 19.4211 98.2461C21.6035 92.9866 19.3004 86.2123 15.7394 86.6612C12.3641 87.0894 5.02225 95.3641 4.19055 97.4454L16.2027 104.734Z" fill="#233543"/>
<path d="M55.6637 104.032C56.8989 106.88 54.3553 114.694 52.7064 115.627C51.0595 116.559 52.2472 104.922 52.2472 104.922L44.7289 95.9307L47.4056 93.7865C47.4056 93.7865 54.4317 101.187 55.6637 104.032Z" fill="#F9AA78"/>
<path d="M39.7574 105.724C38.7637 103.699 37.6968 101.537 36.54 99.2367C34.3566 93.9782 36.6597 87.2019 40.2207 87.6518C43.596 88.08 50.9379 96.3547 51.7696 98.4339L39.7574 105.724Z" fill="#233543"/>
<path d="M45.0911 122.287C45.2088 120.626 45.3016 118.997 45.3615 117.441C45.7742 106.445 33.8818 116.694 29.6676 122.287H45.0911Z" fill="#FBBF14"/>
<path d="M11.2888 122.287H26.7123C22.4981 116.694 10.6057 106.445 11.0184 117.441C11.0762 118.997 11.1711 120.626 11.2888 122.287Z" fill="#FBBF14"/>
<path d="M44.1221 122.287C45.7607 118.991 45.835 115.502 44.2119 112.822H11.8872C10.621 114.733 10.555 118.788 12.4908 122.287H44.1221Z" fill="#FBBF14"/>
<path d="M45.3109 113.405C44.9828 118.497 38.1177 118.085 28.1848 118.552C20.325 118.92 11.3868 118.215 11.005 113.405C13.2256 92.9083 11.005 83.8236 28.158 83.8236C42.8912 83.8236 42.7859 91.1985 45.3109 113.405Z" fill="#2E475A"/>
<path d="M34.2399 85.6469C34.2399 85.6469 33.6703 88.0801 28.158 88.0801C22.6457 88.0801 22.0751 85.6469 22.0751 85.6469V73.2448H34.2399V85.6469Z" fill="#F9AA78"/>
<path d="M38.2352 122.287C39.7841 120.461 40.7819 118.086 40.8717 115.181C40.5663 109.564 40.3124 104.561 40.0555 100.116H16.0993C15.9188 104.612 15.731 109.625 15.4441 115.181C15.5555 118.122 16.4801 120.483 17.9144 122.287H38.2352Z" fill="#FBBF14"/>
<path d="M21.0968 104.922C21.0235 106.74 20.9389 108.681 20.8326 110.755C21.1814 119.951 35.2728 119.383 35.5369 110.755C35.4234 108.665 35.3223 106.725 35.2263 104.922H21.0968Z" fill="#F6891B"/>
<path d="M21.7334 105.831C24.3482 108.488 31.9036 108.369 34.5834 105.831H21.7334Z" fill="#F46A1F"/>
<path d="M15.5081 87.6518C15.988 86.0411 19.614 84.3085 19.9906 84.8957C20.3673 85.4849 20.9513 102.337 20.9513 102.337H17.4233C17.4233 102.337 15.0293 89.2647 15.5081 87.6518Z" fill="#FBBF14"/>
<path d="M40.8078 87.8819C40.329 86.2691 36.7019 84.5365 36.3253 85.1237C35.9476 85.7119 35.3646 102.564 35.3646 102.564L38.8916 102.565C38.8916 102.565 41.2876 89.4906 40.8078 87.8819Z" fill="#FBBF14"/>
<path d="M50.85 109.676C50.2577 110.217 49.7996 111.246 49.1165 111.855C46.3737 114.841 50.8108 118.96 53.5907 116.364C54.2016 115.673 55.2685 115.208 55.7958 114.613C55.7958 114.613 55.4532 113.144 53.8714 111.566C52.2895 109.985 50.85 109.676 50.85 109.676Z" fill="#43230E"/>
<path d="M46.6143 112.254C46.2779 112.983 46.3811 113.293 46.0788 113.606C43.1462 116.618 45.311 122.783 49.5449 121.111C50.6283 120.554 52.656 118.992 52.5476 118.039C52.4568 117.227 52.2236 116.134 51.6788 114.89C51.1567 113.69 50.5478 112.813 50.0319 112.206C49.3828 111.442 47.7638 110.842 46.6143 112.254Z" fill="#5A3114"/>
<path d="M5.14087 108.26C5.73111 108.8 6.19133 109.83 6.87547 110.438C9.61717 113.428 5.17802 117.544 2.39813 114.949C1.78932 114.258 0.72236 113.795 0.195068 113.198C0.195068 113.198 0.537653 111.73 2.11953 110.151C3.7014 108.57 5.14087 108.26 5.14087 108.26Z" fill="#43230E"/>
<path d="M9.37678 110.838C9.71317 111.571 9.60998 111.88 9.91232 112.191C12.8449 115.203 10.68 121.368 6.44623 119.694C5.36276 119.141 3.33511 117.577 3.4414 116.624C3.53427 115.81 3.76747 114.719 4.3123 113.474C4.83444 112.277 5.44325 111.398 5.95919 110.793C6.60824 110.027 8.22726 109.428 9.37678 110.838Z" fill="#5A3114"/>
<path d="M50.3579 53.1727C49.8275 68.7211 40.1164 81.3069 27.6121 81.2595C15.1057 81.212 5.22235 68.5591 5.07479 53.0025C4.89525 33.7434 15.3255 22.985 27.8298 23.0325C40.3362 23.08 50.9615 35.4863 50.3579 53.1727Z" fill="#F9AA78"/>
<path d="M19.9886 49.5217C19.9886 50.9447 18.836 52.1014 17.4089 52.1014C15.9828 52.1014 14.8281 50.9447 14.8281 49.5217C14.8281 48.0957 15.9828 46.942 17.4089 46.942C18.836 46.942 19.9886 48.0957 19.9886 49.5217Z" fill="#302D2E"/>
<path d="M17.5596 47.8718C17.767 48.1597 17.4657 48.7324 16.8878 49.1482C16.31 49.5641 15.6723 49.6652 15.4638 49.3763C15.2544 49.0873 15.5557 48.5157 16.1335 48.1019C16.7134 47.685 17.3511 47.5818 17.5596 47.8718Z" fill="white"/>
<path d="M20.8512 43.0065C20.8512 43.0065 14.1853 42.8052 11.2826 45.4025C11.2826 45.4025 13.9758 38.4136 21.005 40.6311C21.005 40.6311 22.9181 41.5763 20.8512 43.0065Z" fill="#351F17"/>
<path d="M35.4524 49.5217C35.4524 50.9447 36.6071 52.1014 38.0331 52.1014C39.4582 52.1014 40.6118 50.9447 40.6118 49.5217C40.6118 48.0957 39.4582 46.942 38.0331 46.942C36.6071 46.942 35.4524 48.0957 35.4524 49.5217Z" fill="#302D2E"/>
<path d="M37.8825 47.8718C37.674 48.1597 37.9753 48.7324 38.5532 49.1482C39.1321 49.5641 39.7698 49.6652 39.9772 49.3763C40.1856 49.0873 39.8864 48.5157 39.3065 48.1019C38.7276 47.685 38.0899 47.5818 37.8825 47.8718Z" fill="white"/>
<path d="M34.5897 43.0065C34.5897 43.0065 41.2557 42.8052 44.1573 45.4025C44.1573 45.4025 41.4641 38.4136 34.436 40.6311C34.436 40.6311 32.526 41.5763 34.5897 43.0065Z" fill="#351F17"/>
<path d="M26.5586 62.6586C25.73 62.6586 24.891 62.444 24.1254 61.9941C21.8336 60.6506 21.0679 57.7025 22.4135 55.4107C23.1864 54.0971 24.4855 53.2881 25.8817 53.0869C25.1552 53.4656 24.5123 54.06 24.0542 54.836C22.8294 56.9183 23.4134 59.5331 25.3575 60.6754C25.9714 61.0345 26.6442 61.2047 27.3191 61.2047C28.7864 61.2047 30.2558 60.3988 31.0947 58.9707C31.1824 58.8211 31.2588 58.6725 31.3279 58.5177C31.2433 59.1244 31.0411 59.724 30.7129 60.2853C29.8152 61.8094 28.2085 62.6586 26.5586 62.6586Z" fill="#DD976A"/>
<path d="M25.4049 69.753C25.1263 69.753 24.8487 69.7437 24.5783 69.7437C24.5608 69.7437 24.5422 69.7437 24.5236 69.7437C24.3008 69.7437 24.0789 69.722 23.8632 69.7034C23.629 69.6797 23.3999 69.6642 23.176 69.6374C22.7313 69.5548 22.3072 69.5043 21.9212 69.3774C21.7324 69.3093 21.5312 69.3041 21.3702 69.1947C21.2092 69.0884 21.0576 69.0059 20.9244 68.8975C20.7924 68.7871 20.6706 68.6932 20.5653 68.5911C20.4694 68.4817 20.3806 68.3816 20.3012 68.2908C20.232 68.1886 20.1753 68.0999 20.1289 68.0215C20.0917 67.9368 20.0597 67.8667 20.035 67.8089C19.9937 67.6851 19.9885 67.6211 19.9885 67.6211L20.0195 67.6603C20.0412 67.682 20.0721 67.714 20.1144 67.7563C20.1598 67.7934 20.2155 67.8357 20.2816 67.8884C20.3528 67.9307 20.4333 67.9812 20.5251 68.0349C20.6211 68.0792 20.7274 68.1247 20.8429 68.1752C20.9626 68.2124 21.0926 68.2536 21.2299 68.297C21.3671 68.3383 21.5281 68.3568 21.6829 68.3867C21.8335 68.4239 21.9873 68.5013 22.1617 68.5384C22.495 68.6519 22.8891 68.6973 23.2947 68.7758C23.501 68.8005 23.7157 68.8129 23.9334 68.8325C24.1336 68.8532 24.3348 68.8738 24.5443 68.8738C24.5649 68.8738 24.5866 68.8738 24.6072 68.8738C24.8693 68.8738 25.1345 68.8821 25.4049 68.8821C25.6112 68.8821 25.8197 68.8769 26.0302 68.8604C26.5172 68.8284 27.0115 68.8181 27.5047 68.7489C27.999 68.6839 28.4943 68.6509 28.9783 68.5673C29.4633 68.4868 29.94 68.4084 30.4012 68.3331C30.8615 68.2547 31.3041 68.1463 31.7251 68.0638C32.1451 67.974 32.5424 67.8894 32.9097 67.812C33.0005 67.7883 33.0903 67.7687 33.176 67.7408C33.2606 67.7088 33.3473 67.6892 33.435 67.6892C33.6073 67.6789 33.7734 67.6717 33.9292 67.6634C34.2398 67.6448 34.5143 67.6376 34.7393 67.6314C35.055 67.6232 35.2779 67.6211 35.3832 67.6211C35.4286 67.6211 35.4523 67.6211 35.4523 67.6211C35.4523 67.6211 35.2263 67.746 34.8218 67.9492C34.6185 68.0504 34.374 68.1752 34.0892 68.3052C33.9457 68.3733 33.7951 68.4445 33.6351 68.5199C33.5557 68.5611 33.469 68.5849 33.3792 68.5942C33.2895 68.6138 33.1997 68.6385 33.1068 68.6602C32.7353 68.7386 32.3309 68.8263 31.9037 68.9161C31.4754 69.0018 31.0286 69.1122 30.557 69.1875C30.0855 69.2659 29.6005 69.3464 29.1042 69.4279C28.6109 69.5125 28.0981 69.5517 27.5925 69.6157C27.0879 69.6869 26.5719 69.6962 26.0673 69.7292C25.8465 69.7478 25.6247 69.753 25.4049 69.753Z" fill="#DD976A"/>
<path d="M55.3327 55.0445C55.3327 58.0833 53.2349 60.5454 50.6469 60.5454C48.0589 60.5454 45.9622 58.0833 45.9622 55.0445C45.9622 52.0045 48.0589 49.5404 50.6469 49.5404C53.2349 49.5404 55.3327 52.0045 55.3327 55.0445Z" fill="#F9AA78"/>
<path d="M50.4219 58.3485C50.3517 58.3485 50.2682 58.3299 50.165 58.2896C50.005 58.2288 50.0587 57.8511 50.1516 57.7603C50.9956 56.9234 52.1709 56.1929 52.8179 55.1806C53.3143 54.4067 53.0573 53.3067 52.2133 52.8537C51.9305 52.701 51.6571 52.6349 51.3847 52.6349C50.9636 52.6349 50.554 52.798 50.1516 53.0611C50.1278 53.0766 50.1082 53.0828 50.0876 53.0828C50.0793 53.0828 50.0721 53.0817 50.0659 53.0797C50.0958 52.6907 50.1247 52.3171 50.1464 51.9673C50.5478 51.7279 50.9987 51.5752 51.4383 51.5752C51.8872 51.5752 52.3216 51.731 52.6848 52.1046C53.3174 52.7515 53.7012 53.7896 53.5691 54.7028C53.4267 55.6676 52.918 56.3084 52.1823 56.9255C51.721 57.3104 51.2237 57.6726 50.8078 58.1153C50.6623 58.27 50.5622 58.3485 50.4219 58.3485Z" fill="#DD976A"/>
<path d="M50.4827 54.5233C49.0123 54.8091 49.9947 55.9328 49.94 56.6262C49.94 56.6262 50.1887 57.2856 50.8996 56.1547C50.8996 56.1547 49.9864 55.9039 50.6943 55.2776C50.6943 55.2776 51.1834 54.3881 50.4827 54.5233Z" fill="#CB9678"/>
<path d="M0.393066 55.0445C0.393066 58.0833 2.49088 60.5454 5.07781 60.5454C7.66679 60.5454 9.76358 58.0833 9.76358 55.0445C9.76358 52.0045 7.66679 49.5404 5.07781 49.5404C2.49088 49.5404 0.393066 52.0045 0.393066 55.0445Z" fill="#F9AA78"/>
<path d="M5.30291 58.3485C5.16257 58.3485 5.06351 58.27 4.91595 58.1153C4.50217 57.6726 4.0048 57.3104 3.54149 56.9255C2.80782 56.3084 2.30013 55.6676 2.1567 54.7028C2.02256 53.7896 2.40848 52.7515 3.03896 52.1046C3.40218 51.731 3.83867 51.5752 4.28547 51.5752C4.67759 51.5752 5.07796 51.6959 5.44531 51.892C5.46698 52.25 5.49587 52.6318 5.52682 53.0312C5.13884 52.7856 4.74569 52.6349 4.34119 52.6349C4.07084 52.6349 3.79533 52.701 3.51259 52.8537C2.66851 53.3067 2.41158 54.4067 2.90688 55.1806C3.55696 56.1929 4.73021 56.9234 5.57326 57.7603C5.6651 57.8511 5.72288 58.2288 5.55984 58.2896C5.45666 58.3299 5.37617 58.3485 5.30291 58.3485Z" fill="#DD976A"/>
<path d="M5.2419 54.5233C6.71336 54.8091 5.73307 55.9328 5.78364 56.6262C5.78364 56.6262 5.53598 57.2856 4.82605 56.1547C4.82605 56.1547 5.73926 55.9039 5.03036 55.2776C5.03036 55.2776 4.54228 54.3881 5.2419 54.5233Z" fill="#CB9678"/>
<path d="M52.3246 49.9057C52.3246 49.9057 52.0574 38.3579 48.7461 29.4744C48.7461 29.4744 43.0511 6.74725 10.6469 17.8926C10.6469 17.8926 12.1298 18.9204 14.3968 20.2298C13.6394 19.9347 11.7624 19.6757 7.80102 21.4062C7.80102 21.4062 10.5716 22.0635 12.7076 24.0024C8.3572 25.9547 6.84859 29.4744 6.84859 29.4744C3.53729 38.3579 3.27209 49.9057 3.27209 49.9057C4.19872 49.3412 5.41325 49.5218 5.41325 49.5218C5.14599 51.5567 6.57515 62.6587 6.57515 62.6587H8.24163C6.26661 56.6562 8.16734 45.7916 8.39126 45.4025C12.6571 38.0101 9.6357 36.3953 9.6357 36.3953C10.0464 31.9437 13.1606 31.8416 14.437 31.9922C14.437 31.9922 26.9672 36.1858 42.7374 32.0469C44.1036 32.3204 45.6762 33.3223 45.962 36.3953C45.962 36.3953 42.9397 38.0101 47.2024 45.4025C47.4294 45.7916 49.328 56.6562 47.353 62.6587H49.0226C49.0226 62.6587 50.4507 51.5567 50.1824 49.5218C50.1824 49.5218 51.3959 49.3412 52.3246 49.9057Z" fill="#351F17"/>
<path d="M3.27209 49.9056C3.73438 49.6229 4.26786 49.529 4.68784 49.5011C4.26992 49.529 3.73438 49.6249 3.27209 49.9056Z" fill="#D3D2D2"/>
<path d="M3.27209 49.9057V49.9037C3.27209 49.9037 3.27209 49.9037 3.27209 49.9026C3.27209 49.8614 3.28448 49.4156 3.32472 48.6561C3.34329 48.295 3.37012 47.8626 3.40418 47.3683C3.81899 47.1712 4.26476 47.098 4.62489 47.0763C4.64656 47.1011 4.6672 47.1114 4.68784 47.1114C4.7126 47.1114 4.7353 47.097 4.75697 47.0712C4.79928 47.0691 4.83952 47.0691 4.87873 47.0691C5.15425 47.0691 5.33482 47.097 5.33482 47.097C5.27807 47.5407 5.29974 48.4167 5.37094 49.5167C5.30284 49.5085 5.15115 49.495 4.95097 49.495C4.87151 49.495 4.78277 49.4971 4.68784 49.5012C4.26786 49.5291 3.73438 49.623 3.27209 49.9057Z" fill="#2E1B13"/>
<path d="M5.44513 51.892C5.38941 51.0232 5.36567 50.2978 5.38734 49.821C5.36567 50.2978 5.38941 51.0242 5.44513 51.892Z" fill="#CE8C62"/>
<path d="M8.24153 62.6586H6.57504V62.6566C6.57504 62.6566 6.57504 62.6566 6.57504 62.6555C6.57504 62.6555 6.57504 62.6555 6.57298 62.6555V62.6535V62.6514C6.57298 62.6504 6.57298 62.6483 6.57298 62.6483V62.6462C6.5575 62.5348 6.44399 61.6391 6.29024 60.3596C6.15403 59.2039 5.9848 57.7345 5.82899 56.2434C5.77327 55.7151 5.72064 55.1806 5.67008 54.6584C5.61745 54.0992 5.56895 53.5492 5.52665 53.0312C5.49569 52.6318 5.4668 52.25 5.44513 51.892C5.38941 51.0242 5.36567 50.2977 5.38734 49.821C5.38941 49.8127 5.38941 49.8055 5.38941 49.7993C5.66492 53.7659 6.49662 60.2327 6.49662 60.2327H7.67502C7.81226 61.0963 7.99697 61.9167 8.24153 62.6586Z" fill="#2E1B13"/>
<path d="M52.2287 47.9348C52.2194 47.7831 52.2081 47.6221 52.1957 47.4529C52.1957 47.4529 52.1957 47.4529 52.1977 47.4529C52.2081 47.6221 52.2194 47.7831 52.2287 47.9348Z" fill="#D3D2D2"/>
<path d="M49.0226 62.6587H47.353C47.5542 62.0479 47.7152 61.3875 47.8421 60.693C47.869 60.5424 47.8948 60.3886 47.9195 60.2328H48.9442C48.9442 60.2328 50.3754 49.1318 50.1061 47.097C50.1061 47.097 50.2867 47.0691 50.5611 47.0691C50.9873 47.0691 51.6384 47.132 52.1956 47.453C52.208 47.6222 52.2194 47.7832 52.2287 47.9348C52.3061 49.1648 52.3226 49.8975 52.3246 49.9057C51.7581 49.5621 51.0853 49.495 50.6468 49.495C50.3661 49.495 50.1824 49.5219 50.1824 49.5219C50.2062 49.6963 50.2165 49.9377 50.2165 50.2349C50.2165 50.6972 50.1907 51.2895 50.1463 51.9674C50.1247 52.3172 50.0958 52.6908 50.0658 53.0798C50.0215 53.6102 49.973 54.1715 49.9162 54.7432C49.8791 55.1301 49.8409 55.5223 49.8017 55.9123C49.6397 57.4983 49.457 59.0833 49.3095 60.3195C49.1444 61.7115 49.0226 62.6587 49.0226 62.6587Z" fill="#2E1B13"/>
<path d="M7.35424 55.5573C7.35424 55.5563 7.35217 55.5563 7.35217 55.5542C7.35217 53.7577 7.46774 51.9777 7.62149 50.4216C7.46774 51.9798 7.35424 53.7598 7.35424 55.5573Z" fill="#CE8C62"/>
<path d="M7.35215 55.554C6.96829 49.823 8.14257 43.2777 8.31283 42.9775C8.74932 42.2231 9.10738 41.5287 9.40146 40.891C9.6873 40.9828 9.9886 41.0736 10.3033 41.1634C9.96797 42.3047 9.3736 43.6987 8.39125 45.4024V45.4044C8.39125 45.4065 8.38919 45.4065 8.38919 45.4065C8.38919 45.4075 8.38919 45.4075 8.38919 45.4075C8.38919 45.4075 8.38919 45.4075 8.38919 45.4096C8.28806 45.6139 7.89389 47.6674 7.62147 50.4214C7.46772 51.9775 7.35215 53.7575 7.35215 55.554Z" fill="#2E1B13"/>
<path d="M48.1651 52.8701C47.9453 48.9253 47.3282 45.616 47.2023 45.4024C46.0796 43.4553 45.4626 41.9085 45.1633 40.6867C45.4099 40.6362 45.6504 40.5856 45.8784 40.535C46.2004 41.2687 46.609 42.0798 47.127 42.9775C47.2735 43.2303 48.1341 47.9532 48.1651 52.8701Z" fill="#2E1B13"/>
<path d="M14.8313 23.8404C14.5713 23.019 13.6818 22.3534 12.9956 21.887C12.0566 21.2462 10.937 20.9449 9.81841 21.1699C9.73896 21.1854 9.75237 21.4248 9.82357 21.4134C10.8699 21.2576 11.8388 21.5537 12.7448 22.0738C13.2484 22.3627 13.6931 22.7548 14.0945 23.1728C14.3463 23.4369 14.4866 23.8105 14.7745 24.0261C14.8395 24.0757 14.8385 23.861 14.8313 23.8404Z" fill="#472B20"/>
<path d="M12.6571 18.0514C13.399 18.5096 14.2132 18.8377 14.9345 19.332C15.7517 19.8902 16.2501 20.7002 16.5937 21.6093C16.7134 21.9302 16.8455 21.308 16.7826 21.1429C16.0592 19.2484 14.5506 18.2588 12.7046 17.5644C12.5333 17.5004 12.5384 17.9771 12.6571 18.0514Z" fill="#472B20"/>
<path d="M16.0808 17.5211C19.2259 17.1671 22.3237 16.5181 25.4946 16.4087C28.809 16.2931 31.9676 17.4055 34.9064 18.8357C40.8129 21.7095 45.0777 26.0836 46.7679 32.5246C46.8226 32.7279 46.9123 32.4844 46.902 32.3895C46.2509 26.5789 41.8293 22.0283 36.9475 19.2815C34.0995 17.679 31.1029 16.4283 27.8545 15.9722C23.9303 15.4233 19.9328 16.6904 16.0746 17.2218C15.9776 17.2352 15.9931 17.5304 16.0808 17.5211Z" fill="#472B20"/>
<path d="M47.0001 37.2373C45.4049 37.2745 45.9579 39.331 46.2613 40.2865C46.5668 41.2534 47.0486 42.1645 47.512 43.0623C48.8916 45.7338 49.1506 48.2186 49.359 51.1595C49.3704 51.3338 49.4942 51.4339 49.5293 51.209C49.9049 48.7768 49.3384 46.2663 48.4355 44.0106C47.903 42.6784 44.8033 38.3466 47.027 37.5582C47.1064 37.5283 47.0961 37.2353 47.0001 37.2373Z" fill="#472B20"/>
<path d="M13.5495 25.8246C10.2268 25.933 8.70479 28.7923 7.83904 31.6289C7.04759 34.2138 6.38203 36.8245 5.80211 39.465C5.51215 40.7786 5.25934 42.0984 5.00859 43.4202C4.84452 44.2942 4.38327 45.6615 4.75166 46.2528C4.57933 45.9772 4.44931 46.8038 4.57933 47.0081L4.601 47.0452C4.74134 47.2702 4.8631 46.8616 4.87342 46.777C5.39452 42.6051 6.39338 38.4445 7.47582 34.3861C8.02581 32.3286 8.49222 30.1265 9.71088 28.3486C10.6323 27.0061 12.1203 26.5283 13.5629 25.9856C13.6021 25.9701 13.5969 25.8225 13.5495 25.8246Z" fill="#472B20"/>
<path d="M13.9706 28.7645C17.1612 32.696 24.1027 32.3978 28.6326 32.209C31.7768 32.0789 38.937 31.531 40.1587 27.8245C40.2145 27.6573 40.1009 26.9082 39.9131 27.2951C38.1445 30.9346 31.2588 31.2472 27.8298 31.4216C23.0584 31.6641 18.0342 31.3721 13.9944 28.6139C13.9469 28.5819 13.951 28.7387 13.9706 28.7645Z" fill="#472B20"/>
<path d="M17.8093 28.0258C19.8617 29.0824 22.2299 29.1103 24.4917 29.0566C27.1148 28.9937 29.7832 28.9049 32.3701 28.4519C34.2265 28.1238 38.2261 27.3458 38.062 24.8579C38.0527 24.7124 37.8907 24.4369 37.8401 24.7279C37.3799 27.4201 31.3692 27.8988 29.4056 28.0815C25.537 28.4375 21.6262 28.6408 17.8175 27.7853C17.7505 27.7699 17.7536 27.9989 17.8093 28.0258Z" fill="#472B20"/>
<path d="M22.4312 24.7566C25.1347 25.8587 28.0395 25.708 30.8648 25.2333C32.3971 24.9764 34.6549 24.4605 35.0841 22.7228C35.1006 22.6557 35.0284 22.1872 34.9201 22.373C32.8584 25.9722 25.7198 24.9733 22.4353 24.6142C22.3951 24.6111 22.3971 24.7411 22.4312 24.7566Z" fill="#472B20"/>
<path d="M26.8713 22.6196C28.3087 23.1996 30.9008 23.0138 31.719 21.4743C31.7397 21.4371 31.7397 21.1936 31.653 21.2421C30.8822 21.6889 30.3374 22.1419 29.4345 22.3679C28.6038 22.5763 27.7081 22.6134 26.8775 22.3937C26.8207 22.3782 26.8114 22.5959 26.8713 22.6196Z" fill="#472B20"/>
<path d="M48.0113 30.0254C48.2579 32.6536 49.2134 35.2406 49.6819 37.844C49.9502 39.3309 50.2855 40.7529 50.3887 42.2687C50.4444 43.0674 50.5621 43.6906 50.8768 44.4006C50.9511 44.5729 51.0027 44.2551 50.9872 44.1921C50.4259 41.8198 50.2308 39.2587 49.7779 36.8472C49.3383 34.511 48.6521 32.2574 48.0866 29.947C48.0587 29.8273 48.004 29.9708 48.0113 30.0254Z" fill="#472B20"/>
<path d="M13.8138 27.6604C15.3874 27.1434 16.5121 26.0177 17.2633 24.571C18.2147 22.7352 18.5377 20.4527 20.554 19.4291C20.6768 19.3662 20.6417 18.907 20.488 18.9709C19.066 19.5591 18.4397 21.077 17.8938 22.4102C17.4883 23.4008 17.1158 24.3615 16.5617 25.2819C15.9302 26.3303 14.7136 26.8679 13.8107 27.6336L13.8138 27.6604Z" fill="#472B20"/>
<path d="M23.6291 42.7073C22.8129 42.7073 22.0286 42.6938 21.2774 42.6701C22.622 41.4288 21.005 40.6311 21.005 40.6311C20.0412 40.3288 19.16 40.1967 18.3572 40.1967C16.3873 40.1967 14.8787 40.984 13.7726 41.9468C12.4528 41.7146 11.3022 41.4473 10.3054 41.1636C11.424 37.3518 9.63574 36.3952 9.63574 36.3952C9.64503 36.2859 9.65741 36.1775 9.67083 36.0723C14.1605 37.3704 20.6211 38.4002 27.7989 38.4002C34.9777 38.4002 41.4352 37.3704 45.926 36.0723C45.9394 36.1775 45.9518 36.2859 45.9621 36.3952C45.9621 36.3952 44.3214 37.2713 45.1613 40.6889C43.9933 40.9283 42.6085 41.1718 40.9729 41.4071C39.9534 40.7054 38.6687 40.1967 37.0838 40.1967C36.2789 40.1967 35.3987 40.3288 34.436 40.6311C34.436 40.6311 33.2204 41.2327 33.7766 42.2016C32.2267 42.3317 30.5406 42.4514 28.709 42.5566C26.8898 42.6598 25.2006 42.7073 23.6291 42.7073Z" fill="#CE8C62"/>
<path d="M21.2775 42.67C18.3149 42.575 15.8363 42.3057 13.7726 41.9466C14.8788 40.9839 16.3874 40.1965 18.3572 40.1965C19.16 40.1965 20.0413 40.3286 21.005 40.631C21.005 40.631 22.622 41.4286 21.2775 42.67Z" fill="#2E1B13"/>
<path d="M33.7765 42.2015C33.2204 41.2325 34.4359 40.631 34.4359 40.631C35.3987 40.3286 36.2789 40.1965 37.0837 40.1965C38.6687 40.1965 39.9534 40.7053 40.9729 41.4069C38.9731 41.6928 36.5977 41.9652 33.7765 42.2015Z" fill="#2E1B13"/>
<path d="M10.3055 41.1636H10.3035C10.7988 39.4806 10.7265 38.3548 10.4913 37.6211C10.3385 38.5013 10.0073 39.5786 9.40159 40.8912C7.99514 40.4372 6.94365 39.9635 6.18419 39.5508C6.51232 38.1175 6.86935 36.6914 7.24083 35.2767C7.96624 35.5491 8.77937 35.8154 9.67091 36.0723C9.6575 36.1775 9.64511 36.2859 9.63583 36.3953C9.63583 36.3953 11.4241 37.3518 10.3055 41.1636ZM45.1614 40.6889C44.3215 37.2713 45.9622 36.3953 45.9622 36.3953C45.9518 36.2859 45.9395 36.1775 45.926 36.0723C47.1065 35.7328 48.1497 35.3727 49.0361 35.0074C49.2776 35.9547 49.5108 36.8978 49.6821 37.844C49.7729 38.3497 49.8709 38.846 49.9659 39.3434C49.2704 39.6261 48.2034 39.9852 46.6112 40.368C46.1138 39.0978 45.9735 37.9307 47.0271 37.5582C47.1065 37.5293 47.0962 37.2373 47.0013 37.2373C47.0013 37.2373 47.0013 37.2373 47.0002 37.2373C45.4049 37.2744 45.958 39.331 46.2614 40.2865C46.2779 40.3371 46.2934 40.3876 46.3099 40.4372C46.1696 40.4712 46.0272 40.5032 45.8786 40.5352C45.4421 39.5394 45.1707 38.6871 45.017 37.9586C44.8777 38.6035 44.8673 39.4889 45.1635 40.6869L45.1614 40.6889ZM5.82716 39.3506C4.88195 38.7975 4.50635 38.4002 4.50635 38.4002L5.39273 34.4801C5.82096 34.6947 6.30595 34.9094 6.84665 35.124C6.47827 36.5243 6.13982 37.9338 5.82716 39.3506Z" fill="#2E1B13"/>
<path d="M10.3032 41.1635C9.98851 41.0738 9.6872 40.983 9.40137 40.8911C10.0071 39.5786 10.3383 38.5013 10.491 37.6211C10.7263 38.3548 10.7985 39.4805 10.3032 41.1635Z" fill="#281710"/>
<path d="M45.1635 40.6869C44.8673 39.4889 44.8777 38.6035 45.017 37.9586C45.1707 38.6871 45.4421 39.5395 45.8786 40.5352C45.6505 40.5858 45.4101 40.6363 45.1635 40.6869Z" fill="#281710"/>
<path d="M46.3098 40.4372C46.2933 40.3876 46.2778 40.3371 46.2613 40.2865C45.9579 39.331 45.4049 37.2745 47.0001 37.2373C47.0012 37.2373 47.0012 37.2373 47.0012 37.2373C47.0961 37.2373 47.1064 37.5293 47.027 37.5582C45.9734 37.9307 46.1138 39.0978 46.6111 40.368C46.5131 40.3897 46.4109 40.4134 46.3098 40.4372Z" fill="#3C241A"/>
<path d="M6.18406 39.5505C6.05714 39.4814 5.93847 39.4154 5.82703 39.3504C6.13969 37.9336 6.47814 36.524 6.84652 35.1238C6.97551 35.1754 7.10553 35.2259 7.2407 35.2765C6.86923 36.6912 6.5122 38.1173 6.18406 39.5505Z" fill="#3C241A"/>
<path d="M51.1493 38.7386C50.9553 37.6263 50.7283 36.483 50.4641 35.3345C51.0936 37.3425 51.1493 38.7386 51.1493 38.7386Z" fill="#D3D2D2"/>
<path d="M50.1618 39.2618C50.0473 38.4487 49.9266 37.6397 49.778 36.8472C49.6531 36.1847 49.5097 35.5284 49.3518 34.8742C49.648 34.7473 49.9235 34.6194 50.1783 34.4924C50.2857 34.7834 50.3796 35.0631 50.4642 35.3344C50.7283 36.4829 50.9553 37.6263 51.1493 38.7386C51.1432 38.7427 50.8996 38.946 50.1618 39.2618Z" fill="#2E1B13"/>
<path d="M49.9657 39.3433C49.8708 38.846 49.7728 38.3496 49.682 37.844C49.5107 36.8978 49.2775 35.9546 49.036 35.0074C49.1444 34.964 49.2486 34.9197 49.3518 34.8743C49.5096 35.5285 49.6531 36.1848 49.7779 36.8472C49.9265 37.6397 50.0473 38.4487 50.1618 39.2618C50.1009 39.2897 50.0349 39.3145 49.9657 39.3433Z" fill="#3C241A"/>
<path d="M52.3545 32.5092C52.3545 34.7277 41.3609 38.4002 27.7989 38.4002C14.2358 38.4002 3.24011 34.7277 3.24011 32.5092C3.24011 30.2917 14.2358 28.4941 27.7989 28.4941C41.3609 28.4941 52.3545 30.2917 52.3545 32.5092Z" fill="#F9A72B"/>
<path d="M27.5978 36.8802C16.0479 36.8802 6.68462 33.7567 6.68462 31.8652C6.68462 31.3957 7.26454 30.9479 8.30983 30.5424C5.77347 31.1089 4.27002 31.8064 4.27002 32.5617C4.27002 34.4522 13.6374 37.5808 25.1832 37.5808C31.9358 37.5808 37.9351 36.5087 41.7593 35.2446C38.0363 36.1806 33.0636 36.8802 27.5978 36.8802Z" fill="#FAB82A"/>
<path d="M50.8077 31.4247C51.1524 29.5466 50.8975 31.2203 50.8975 29.2206C50.8975 14.0746 40.458 1.79626 27.5832 1.79626C14.7094 1.79626 4.26991 14.0746 4.26991 29.2206C4.26991 31.2203 4.03361 29.7592 4.38032 31.6362C4.38032 31.6362 30.7108 39.1504 50.8077 31.4247Z" fill="#F9A72B"/>
<path d="M42.7045 33.4482C43.7394 33.3192 44.7424 32.9663 45.7805 32.8363C46.1272 32.7919 46.4708 32.7527 46.8186 32.7207C47.0342 31.2864 47.155 29.8088 47.155 28.3012C47.155 14.2686 37.4831 2.89319 25.5556 2.89319C24.8839 2.89319 24.2142 2.9355 23.5548 3.0067C34.5495 4.19336 43.1585 15.0601 43.1585 28.3012C43.1585 30.0636 42.9944 31.7828 42.7045 33.4482Z" fill="#FAB82A"/>
<path d="M27.5833 1.66919C14.7096 1.66919 4.27002 13.9475 4.27002 29.0956C4.27002 29.9541 4.31026 30.8002 4.38043 31.636C4.46298 31.666 4.5445 31.7031 4.62189 31.7506C7.11285 31.9539 9.5646 32.8444 12.038 33.4408C11.8451 32.0261 11.7388 30.5722 11.7388 29.0956C11.7388 15.4448 20.2219 4.12816 31.3187 2.02622C30.1042 1.79611 28.8566 1.66919 27.5833 1.66919Z" fill="#E48F28"/>
<path d="M16.3822 5.1665C16.3822 5.1665 23.3339 8.50877 22.5611 31.4248C22.5611 31.4248 20.6077 9.61494 13.3433 7.5161C13.3433 7.5161 15.1614 5.90327 16.3822 5.1665Z" fill="#BF7821"/>
<path d="M38.2797 4.42334C38.2797 4.42334 31.33 7.76251 32.1008 30.6785C32.1008 30.6785 34.0511 8.87178 41.3217 6.77087C41.3217 6.77087 39.5025 5.15804 38.2797 4.42334Z" fill="#BF7821"/>
<path d="M22.6219 33.2284C22.6219 33.2284 22.6807 12.5578 15.537 6.80398C15.537 6.80398 14.8302 5.5389 15.8631 4.59679C15.8631 4.59679 24.5546 -4.56734 37.2602 2.98293C37.2602 2.98293 39.6913 3.87241 37.9278 6.41909C37.9278 6.41909 32.1183 16.7668 32.0399 33.2284H22.6219Z" fill="#F9A72B"/>
<path d="M35.8227 4.24708C31.9604 1.95527 28.5149 1.36504 25.6267 1.58999C27.9804 1.78089 30.62 2.54551 33.4876 4.24708C33.4876 4.24708 35.6906 5.05504 34.0892 7.36439C34.0892 7.36439 28.3674 18.2961 28.2962 33.2285H30.6313C30.7025 18.2961 36.4284 7.36439 36.4284 7.36439C38.0279 5.05504 35.8227 4.24708 35.8227 4.24708Z" fill="#FAB82A"/>
<path d="M19.3261 8.34964C19.3261 8.34964 18.6213 7.08145 19.6511 6.14038C19.6511 6.14038 26.1097 -0.657654 36.0291 2.29662C23.9964 -3.97928 15.8631 4.59668 15.8631 4.59668C14.8302 5.53879 15.537 6.80078 15.537 6.80078C22.6807 12.5566 22.6219 33.2283 22.6219 33.2283H26.3811C26.2314 28.3258 25.2831 13.1499 19.3261 8.34964Z" fill="#E48F28"/>
<path d="M29.2073 35.4406C19.4829 35.4406 10.9781 33.4894 6.87744 32.3625C6.84855 32.3233 6.82275 32.2851 6.80005 32.2459C7.74938 32.4668 8.95668 32.7309 10.3704 33.0044C10.9255 33.1581 11.4817 33.3077 12.0379 33.4409C12.0327 33.3985 12.0265 33.3542 12.0214 33.3108C16.573 34.1188 22.7581 34.9144 29.455 34.9144C36.4429 34.9144 43.9828 34.0476 50.8077 31.4246C43.7579 34.4418 36.1715 35.4406 29.2073 35.4406Z" fill="#A26B1B"/>
<path d="M6.87751 32.3625C5.97977 32.1159 5.29461 31.9095 4.85193 31.7712C4.86328 31.7712 4.87566 31.7723 4.88701 31.7743C5.29667 31.8827 5.94572 32.0468 6.80012 32.2459C6.82282 32.2851 6.84862 32.3233 6.87751 32.3625Z" fill="#A2761A"/>
<path d="M4.3763 31.6177C4.3051 31.595 4.27002 31.5815 4.27002 31.5815C4.3051 31.5898 4.33916 31.5991 4.37527 31.6073C4.37527 31.6104 4.37527 31.6135 4.3763 31.6177Z" fill="#A26B1B"/>
<path d="M29.4551 34.9144C22.7582 34.9144 16.5731 34.1188 12.0215 33.3108C12.0132 33.2531 12.006 33.1942 11.9977 33.1365C17.8361 34.0796 23.2174 34.4315 27.9971 34.4315C33.9304 34.4315 38.9391 33.8887 42.7354 33.2654C42.7251 33.3263 42.7148 33.3872 42.7045 33.4481C43.7394 33.3191 44.7424 32.9662 45.7805 32.8362C46.1272 32.7918 46.4708 32.7526 46.8186 32.7206C46.831 32.6381 46.8444 32.5555 46.8557 32.4719C49.4127 31.8992 50.8078 31.4246 50.8078 31.4246C43.983 34.0476 36.443 34.9144 29.4551 34.9144ZM10.3705 33.0044C8.9568 32.7309 7.74949 32.4668 6.80016 32.2459C5.94577 32.0468 5.29671 31.8827 4.88706 31.7744C5.01191 31.7857 5.13884 31.8012 5.26473 31.8167C6.44107 32.0891 7.60297 32.3336 8.74732 32.5565C9.28906 32.702 9.82977 32.8558 10.3705 33.0044ZM4.37834 31.6186C4.37834 31.6186 4.37628 31.6186 4.37628 31.6175C4.37524 31.6134 4.37524 31.6103 4.37524 31.6072C4.37628 31.6082 4.37524 31.6082 4.37628 31.6082C4.37834 31.6124 4.37834 31.6155 4.37834 31.6186Z" fill="#A26B1B"/>
<path d="M42.7043 33.4482C42.7147 33.3873 42.725 33.3264 42.7353 33.2656C44.3285 33.0035 45.7082 32.728 46.8556 32.472C46.8443 32.5556 46.8308 32.6382 46.8185 32.7207C46.4707 32.7527 46.1271 32.7919 45.7804 32.8363C44.7423 32.9663 43.7393 33.3192 42.7043 33.4482Z" fill="#A2761A"/>
<path d="M12.0379 33.441C11.4818 33.3079 10.9256 33.1583 10.3704 33.0045C9.82971 32.8559 9.28901 32.7022 8.74727 32.5567C9.84622 32.7713 10.9307 32.9643 11.9977 33.1366C12.0059 33.1944 12.0132 33.2532 12.0214 33.311C12.0266 33.3543 12.0328 33.3987 12.0379 33.441ZM5.26467 31.8168C5.13878 31.8014 5.01186 31.7859 4.887 31.7745C4.87565 31.7725 4.86327 31.7714 4.85192 31.7714C4.63316 31.7013 4.47425 31.6507 4.37828 31.6187C4.37828 31.6156 4.37828 31.6125 4.37622 31.6084C4.67443 31.6796 4.96955 31.7487 5.26467 31.8168Z" fill="#955C19"/>
</svg>
